<svg xmlns="http://www.w3.org/2000/svg" width="119" height="25"><g data-name="Layer 2"><path fill="none" d="M0 0h119v25H0z"/><path d="M51.72 14.79h6.59l-3.48-5.62-6.4 10.15h-2.92L53.3 7.14a1.85 1.85 0 013 0l7.81 12.21h-2.89l-1.37-2.27h-6.68l-1.45-2.26M82 17.05V6.47h-2.51v11.62a1.18 1.18 0 00.36.85 1.25 1.25 0 00.91.38H92l1.46-2.27H82m-40.92-1.89a4.35 4.35 0 000-8.69H30.27v12.85h2.47V8.74h8.18a2.08 2.08 0 110 4.16H34l7.38 6.43h3.59l-5-4.16h1.12m-26 4.16h7.47a6.43 6.43 0 000-12.85h-7.5a6.43 6.43 0 100 12.85m7.3-2.26h-7.13a4.16 4.16 0 010-8.32h7.13a4.16 4.16 0 110 8.32m46.93 2.26h7.63l1.44-2.26h-8.9a4.16 4.16 0 110-8.32h7.25l1.46-2.27h-8.88a6.43 6.43 0 100 12.85m30.23-2.26a4.17 4.17 0 01-4-3h10.56l1.46-2.26h-12a4.16 4.16 0 014-3h7.25l1.45-2.27h-8.89a6.43 6.43 0 000 12.85H107l1.45-2.26h-8.93" fill="#fff"/></g></svg>